<?xml version="1.0" encoding="UTF-8" standalone="no"?>
<!-- Created with Inkscape (http://www.inkscape.org/) -->

<svg
   width="300"
   height="300"
   viewBox="0 0 79.375 79.375002"
   version="1.1"
   id="svg5"
   inkscape:version="1.1 (c68e22c387, 2021-05-23)"
   sodipodi:docname="cooarchi_background4.svg"
   xmlns:inkscape="http://www.inkscape.org/namespaces/inkscape"
   xmlns:sodipodi="http://sodipodi.sourceforge.net/DTD/sodipodi-0.dtd"
   xmlns="http://www.w3.org/2000/svg"
   xmlns:svg="http://www.w3.org/2000/svg">
  <sodipodi:namedview
     id="namedview7"
     pagecolor="#ffffff"
     bordercolor="#666666"
     borderopacity="1.0"
     inkscape:pageshadow="2"
     inkscape:pageopacity="0.0"
     inkscape:pagecheckerboard="0"
     inkscape:document-units="mm"
     showgrid="false"
     units="px"
     inkscape:zoom="1.0985947"
     inkscape:cx="352.26821"
     inkscape:cy="263.51846"
     inkscape:window-width="1347"
     inkscape:window-height="1041"
     inkscape:window-x="535"
     inkscape:window-y="28"
     inkscape:window-maximized="0"
     inkscape:current-layer="layer1"
     width="300px" />
  <defs
     id="defs2" />
  <g
     inkscape:label="Ebene 1"
     inkscape:groupmode="layer"
     id="layer1">
    <circle
       id="path114"
       style="fill:#000000;stroke:#000000;stroke-width:0.264583"
       cx="42.574539"
       cy="-33.037842"
       r="0.34025624" />
    <rect
       style="fill:#ff0000;stroke-width:0.110702"
       id="rect573"
       width="79.723053"
       height="79.358948"
       x="118.3512"
       y="80.439888" />
    <path
       style="fill:#ffffff;stroke-width:0.264583"
       id="path1528"
       d="M 68.649193,11.76704 C 66.530127,11.692512 64.475925,11.14948 62.437274,10.612023 60.02502,10.000521 57.685492,9.1709218 55.376148,8.2530089 53.674827,7.4737848 51.89792,6.8872409 50.140623,6.2521493 48.894192,5.7504573 47.607979,5.3645508 46.327504,4.9629001 44.902162,4.4580151 43.382025,4.363453 41.920832,4.0199426 39.03251,3.2999976 36.63584,3.5189638 34.041318,5.2584913 33.357415,5.7170208 32.865978,6.4119484 32.278309,6.9886768 30.824098,9.0096376 30.20514,11.163395 29.923076,13.58983 c -0.149268,1.502051 -0.104588,3.025723 0.297883,4.490732 0.32833,1.195128 0.591609,1.682095 1.066493,2.709069 0.895295,1.667432 1.932186,3.267383 3.330909,4.560875 0.295203,0.272995 0.616333,0.516546 0.924501,0.774819 0.78566,0.548625 1.543381,1.121313 2.264238,1.749674 1.109613,0.928185 2.186157,1.894208 3.293341,2.825168 0.728379,0.593892 1.40431,1.247201 2.077585,1.901714 0.677412,0.734833 1.313735,1.508625 1.922743,2.30192 0.719399,0.921848 1.391142,1.876856 2.116933,2.793781 0.89352,1.054793 1.783943,2.113851 2.647178,3.193838 0.915813,1.13398 1.938721,2.180979 2.834222,3.331286 0.532466,0.604028 0.878289,1.333641 1.256697,2.037372 -0.01167,0.02572 0.0413,0.246086 0.02684,0.203147 -0.35919,-1.067218 -0.231417,-1.746192 -0.135495,-2.891965 0.246205,-0.649695 0.346083,-1.375812 0.738618,-1.949082 1.83406,-2.67851 2.592568,-2.729299 5.73309,-3.545896 0.286316,-0.07445 0.59331,0.05081 0.887325,0.01805 0.09319,-0.01037 -0.17957,-0.05445 -0.267459,-0.08712 -0.11348,-0.04218 -0.224168,-0.09152 -0.336254,-0.137282 -2.042282,-0.828487 -4.08705,-1.66124 -6.092727,-2.575901 -0.749137,-0.295465 -1.41602,-0.746828 -2.130977,-1.110246 -0.460909,-0.234289 -1.248042,-0.601184 -1.748131,-0.836438 -1.980377,-0.915347 -4.071922,-1.538896 -6.140389,-2.214711 -1.378196,-0.528373 -2.776773,-1.000879 -4.168926,-1.490673 -1.457812,-0.510887 -2.916822,-1.018156 -4.368794,-1.545458 -1.693202,-0.66285 -3.423121,-1.227608 -5.17062,-1.727962 -1.740101,-0.558085 -3.51603,-1.0017 -5.296425,-1.41055 -1.717109,-0.407718 -3.440734,-0.775889 -5.184814,-1.047806 -1.638472,-0.24542 -3.265277,-0.55439 -4.906183,-0.785708 -1.703976,-0.255814 -3.47141,-0.232149 -5.12279,0.31412 -1.2217784,0.404158 -1.5202777,0.614051 -2.4756934,1.153559 -3.1710076,1.920917 -4.8416907,5.033266 -4.2405603,8.812318 0.3144927,1.977083 1.1149771,2.923862 2.1159795,4.34876 0.4258667,0.474985 0.8335235,0.966949 1.2776001,1.424956 0.7061034,0.72825 1.5744098,1.449149 2.3395429,2.114933 1.0104462,0.879245 2.0333162,1.732524 3.0823452,2.565527 1.121095,0.861296 2.237528,1.744896 3.436403,2.4984 0.910971,0.572553 1.155776,0.67193 2.116479,1.165791 1.565496,0.81089 3.164316,1.554536 4.778321,2.263077 0.889169,0.367646 1.774635,0.760357 2.534719,1.358108 1.949873,1.440956 3.947815,2.808656 5.959199,4.162087 1.383186,0.978294 2.742036,1.988023 4.098599,3.002658 1.686317,1.275165 3.347715,2.578918 5.001604,3.895751 1.328357,1.062871 2.63592,2.146695 3.887058,3.2989 0.994285,0.964149 1.889892,2.029108 2.725475,3.132423 0.685636,0.827968 0.487998,0.572357 0.92746,1.139788 0.09663,0.124772 0.195609,0.247782 0.289245,0.374816 0.02712,0.03679 0.118343,0.113718 0.07271,0.116237 -0.03509,0.0019 -0.22674,-0.340476 -0.278117,-0.426572 -0.0662,-0.14524 -0.183784,-0.594648 -0.198585,-0.435723 -0.01646,0.176807 0.129355,0.33075 0.192918,0.496554 0.0071,0.01863 0.02048,0.07658 0.01918,0.05668 -0.09392,-1.421619 -0.603181,-2.872359 -0.297132,-4.263819 0.629571,-2.862373 1.704104,-3.294655 3.56122,-4.608724 -0.613756,0.07802 1.176666,-0.30998 0.888664,-0.512543 -0.07215,-0.05075 -0.158125,-0.07843 -0.239149,-0.113315 -0.159713,-0.06875 -0.321879,-0.131649 -0.482819,-0.197475 -0.191069,-0.08732 -0.386914,-0.16487 -0.573204,-0.261969 -0.587293,-0.306115 -1.136925,-0.726273 -1.681385,-1.098047 -1.247,-0.851485 -0.66453,-0.45974 -2.049243,-1.368208 -1.838671,-1.180259 -3.726455,-2.280013 -5.726885,-3.1652 -1.522034,-0.6735 -2.015686,-0.813028 -3.604091,-1.37518 -3.581529,-1.163087 -7.218076,-2.147588 -10.873329,-3.048891 -2.043964,-0.552879 -4.141093,-0.779257 -6.250371,-0.853626 -1.338464,-0.02379 -2.677909,-0.06997 -4.009722,-0.209013 -2.089856,-0.28599 -4.146801,-0.204893 -6.088025,0.808162 -0.8129947,0.42427 -1.458306,1.112301 -2.1874593,1.66845 -0.4444595,0.623615 -0.9507776,1.207476 -1.3333788,1.870844 -0.7019766,1.21711 -1.1729717,3.180284 -1.1893486,4.618715 -0.00638,0.560065 0.025741,1.119905 0.038611,1.679858 0.2455061,2.712395 1.6412771,5.00574 3.122586,7.207131 0.6697472,0.954924 1.4150787,1.840656 2.2041277,2.697845 0.286409,0.311142 0.822515,0.752705 1.042926,1.147514 0.129812,0.161137 0.266076,0.31728 0.389437,0.483407 -0.0042,0.008 -0.0084,0.01601 -0.01264,0.02402 0.0024,0.0163 0.01371,0.03379 0.0071,0.04891 -0.0035,0.008 -0.02892,-0.01585 -0.02482,-0.0082 0.31894,0.597093 0.416887,0.753491 0.708307,1.243232 0.454767,0.945081 1.17862,1.718418 1.899857,2.462511 7.667253,7.328929 18.031922,-3.514203 10.36467,-10.843133 v 0 c 0.115348,0.127628 0.240546,0.246997 0.346045,0.382876 0.172483,0.222158 0.329905,0.455758 0.486477,0.689401 0.03569,0.05326 0.121356,0.225862 0.08956,0.170194 -0.102407,-0.179317 -0.200967,-0.360802 -0.30145,-0.5412 C 25.60306,63.76193 24.851218,62.212572 23.915279,61.204875 23.117673,60.2409 23.334944,60.468642 22.58922,59.677051 22.402385,59.478722 22.187316,59.30737 22.00848,59.1018 21.782444,58.841973 21.589527,58.554631 21.360757,58.296892 21.259068,58.150842 21.15333,58.007531 21.05569,57.858745 c -0.124537,-0.189773 -0.232592,-0.390237 -0.361269,-0.577228 -0.01033,-0.015 -0.03869,-0.035 -0.05045,-0.02106 -0.01747,0.02069 -0.0051,0.05457 -3.44e-4,0.08122 0.03632,0.204285 0.09247,0.404945 0.123273,0.610135 0.01627,0.108397 0.01173,0.218908 0.0176,0.328361 -0.01203,0.261538 -0.02297,0.523129 -0.0361,0.784614 -0.0018,0.03527 0.01754,-0.0742 0.002,-0.105929 -0.0095,-0.01953 -0.01752,0.03988 -0.02421,0.06057 -0.05884,0.18221 -0.09874,0.371202 -0.172323,0.547976 -0.490412,1.178105 -0.53621,1.041572 -1.465475,2.233681 -0.599887,0.422862 -1.13653,0.954048 -1.799661,1.268584 -0.691515,0.328002 -1.458873,0.4723 -2.207379,0.632042 -0.273972,0.05847 -0.560103,0.0217 -0.840225,0.01836 -0.07459,-7.93e-4 -0.29601,-0.03691 -0.221641,-0.03103 0.35532,0.02808 0.707359,0.09111 1.062971,0.116009 1.674564,0.166714 3.355858,0.251474 5.038492,0.277739 1.066606,0.02886 2.119494,0.117409 3.149887,0.426683 3.199232,0.785945 6.380735,1.64815 9.52044,2.64751 1.058772,0.360244 2.112954,0.723088 3.119109,1.217176 0.773692,0.379934 1.256975,0.683771 2.005166,1.137709 0.310772,0.188547 0.619202,0.380928 0.928802,0.571394 2.414997,1.576829 4.743608,3.341142 7.493841,4.311375 0.545131,0.185274 1.081966,0.397033 1.635392,0.555823 2.391323,0.686123 4.98198,0.986036 7.434649,0.41457 0.66163,-0.154159 1.298048,-0.401433 1.947071,-0.602152 0.786683,-0.487534 1.742594,-0.773176 2.360046,-1.462603 1.029401,-1.1494 2.067375,-2.428584 2.461057,-3.920495 0.726797,-2.754297 0.05881,-4.055502 -0.730253,-6.023658 C 61.285853,63.047138 61.137631,62.731583 60.965249,62.429172 60.365468,61.376977 59.588577,60.433134 58.812565,59.509114 57.438451,57.729198 55.983579,56.003245 54.339194,54.464597 52.824047,53.07178 51.247156,51.75292 49.638535,50.469124 47.866522,49.058673 46.083252,47.665536 44.27873,46.296939 42.722467,45.132939 41.161655,43.97617 39.569716,42.861044 38.635461,42.232447 37.677244,41.629477 36.76006,40.976197 35.799533,40.292046 34.880135,39.549337 33.896867,38.896496 33.50523,38.627211 33.120865,38.347028 32.721952,38.088635 31.461821,37.272396 30.094444,36.634697 28.717529,36.044978 27.342272,35.445175 25.983757,34.807 24.651597,34.116306 c -1.094652,-0.506939 -2.02068,-1.285799 -2.970961,-2.018911 -0.888037,-0.699932 -1.741784,-1.424379 -2.596891,-2.164398 -0.259384,-0.224472 -0.522853,-0.444198 -0.782173,-0.668747 -0.16943,-0.146712 -0.324234,-0.311206 -0.504039,-0.445003 -0.0168,-0.01249 -0.03745,0.01876 -0.05617,0.02814 -0.792861,-0.159356 0.467198,0.07874 0.61567,2.126028 0.23741,3.273668 -0.535302,3.607847 -2.537423,6.279155 -0.108659,0.144975 -0.261297,0.202641 -0.413222,0.265551 -0.563144,0.188127 -1.015613,0.391232 -1.606297,0.429808 -0.301531,0.01968 -0.604455,0.0059 -0.906517,-0.0024 -0.02046,-5.29e-4 -0.07698,-0.02553 -0.05658,-0.02387 0.159969,0.01294 0.318648,0.03862 0.477972,0.05793 1.579613,0.218982 3.142682,0.532339 4.721116,0.758624 1.396474,0.205372 2.767068,0.536588 4.142206,0.850616 1.513152,0.332367 3.012552,0.735233 4.488915,1.204288 1.410232,0.400209 2.802279,0.864376 4.166214,1.402827 1.499987,0.544454 3.006953,1.069054 4.512834,1.596921 1.502889,0.527913 3.008754,1.046848 4.501496,1.603238 1.475918,0.478946 2.970136,0.911529 4.398309,1.524629 0.346718,0.163063 0.700059,0.312159 1.043469,0.482071 1.01966,0.50451 1.973837,1.142148 3.038396,1.558145 2.435296,1.095489 4.899562,2.133936 7.391926,3.092042 1.21035,0.397968 3.520528,1.192731 4.737241,1.022596 1.498004,-0.209468 3.055723,-0.44586 4.384894,-1.167799 2.462377,-1.337442 2.71489,-2.79142 3.62871,-4.997535 0.0827,-0.681627 0.225928,-1.358614 0.248087,-2.04488 0.06485,-2.008528 -0.706853,-3.936306 -1.55279,-5.710867 -0.813617,-1.512228 -1.665321,-3.014138 -2.777722,-4.331919 -0.917729,-1.127035 -1.873224,-2.222045 -2.825285,-3.320159 -0.847762,-1.05324 -1.710793,-2.096791 -2.590437,-3.122705 -0.696166,-0.876607 -1.327481,-1.801519 -2.026005,-2.677901 -1.045083,-1.33675 -2.121521,-2.656138 -3.318533,-3.860842 -0.931633,-0.903963 -1.873131,-1.799159 -2.876712,-2.62386 -1.042212,-0.875468 -2.052436,-1.787715 -3.098617,-2.658655 -0.902404,-0.783981 -1.824329,-1.546068 -2.819861,-2.210075 0.03246,0.03383 0.432872,0.446432 0.368711,0.474315 -0.07003,0.03043 -0.43333,-0.891461 -0.361966,-0.462577 -0.04606,-0.0886 -0.126259,-0.364959 -0.13819,-0.265811 -0.02053,0.170531 0.08397,0.333656 0.109591,0.503495 0.05641,0.373868 0.04161,0.587005 0.01855,0.962066 -0.0088,0.143067 0.01487,-0.503972 0.01418,-0.429779 -0.0019,-0.01869 0.0072,-0.06982 -0.0056,-0.05607 -0.02482,0.02668 -0.02159,0.06992 -0.03772,0.10259 -0.18964,0.383855 -0.681218,0.87296 -0.815891,1.190834 -0.432183,0.382659 -0.799375,0.854677 -1.296553,1.147976 -1.489223,0.878534 -2.988588,1.304581 -4.688073,1.00753 -0.03181,-0.0056 0.06438,0.0053 0.09656,0.0079 0.224981,0.05156 0.449958,0.103116 0.674936,0.154674 1.025052,0.21284 2.065597,0.348222 3.081584,0.594398 1.073933,0.334723 2.152943,0.653357 3.195246,1.081306 1.61018,0.580499 3.23824,1.113402 4.794242,1.8337 2.881246,1.142149 5.805797,2.163181 8.811619,2.932116 3.274777,0.846123 6.59348,1.613015 9.995019,1.639915 10.606598,0 10.606598,-14.999996 0,-14.999996 z" />
  </g>
</svg>
