<?xml version="1.0" encoding="UTF-8" standalone="no"?>
<!-- Created with Inkscape (http://www.inkscape.org/) -->

<svg
   width="600"
   height="300"
   viewBox="0 0 158.75 79.375002"
   version="1.1"
   id="svg5"
   inkscape:version="1.1 (c68e22c387, 2021-05-23)"
   sodipodi:docname="cooarchi_background1.svg"
   xmlns:inkscape="http://www.inkscape.org/namespaces/inkscape"
   xmlns:sodipodi="http://sodipodi.sourceforge.net/DTD/sodipodi-0.dtd"
   xmlns="http://www.w3.org/2000/svg"
   xmlns:svg="http://www.w3.org/2000/svg">
  <sodipodi:namedview
     id="namedview7"
     pagecolor="#ffffff"
     bordercolor="#666666"
     borderopacity="1.0"
     inkscape:pageshadow="2"
     inkscape:pageopacity="0.0"
     inkscape:pagecheckerboard="0"
     inkscape:document-units="mm"
     showgrid="false"
     units="px"
     inkscape:zoom="1.0985947"
     inkscape:cx="352.26821"
     inkscape:cy="263.51846"
     inkscape:window-width="1347"
     inkscape:window-height="1041"
     inkscape:window-x="535"
     inkscape:window-y="28"
     inkscape:window-maximized="0"
     inkscape:current-layer="layer1" />
  <defs
     id="defs2" />
  <g
     inkscape:label="Ebene 1"
     inkscape:groupmode="layer"
     id="layer1">
    <circle
       id="path114"
       style="fill:#000000;stroke:#000000;stroke-width:0.264583"
       cx="42.574539"
       cy="-33.037842"
       r="0.34025624" />
    <rect
       style="fill:#ff0000;stroke-width:0.156198"
       id="rect573"
       width="158.71791"
       height="79.358948"
       x="-2.3086257"
       y="116.80642" />
    <path
       style="fill:#ffffff;stroke-width:0.264583"
       id="path759"
       d="m 18.191982,35.528213 c 0.475366,-0.218443 0.955192,-0.427427 1.426097,-0.655323 0.250821,-0.121386 0.490222,-0.265173 0.738268,-0.392134 1.339638,-0.685673 2.72256,-1.291442 4.08891,-1.9207 3.867276,-1.639634 7.743419,-3.258003 11.628338,-4.855385 3.604229,-1.49093 7.333404,-2.648966 11.010686,-3.942293 2.247495,-0.777416 4.509966,-1.509336 6.758969,-2.281995 -0.739362,0.203035 0.789279,-0.248805 0.596887,-0.172212 -6.432479,2.560843 -9.883098,-4.771296 -11.868296,-9.197665 -0.491939,-1.09687 0.417105,-2.3678133 0.625655,-3.5517197 -0.04039,0.015322 -0.09421,0.012208 -0.12116,0.045964 -0.264671,0.3314842 -0.491226,0.6917142 -0.741365,1.0342977 -0.315725,0.432407 -0.636887,0.860816 -0.95617,1.290603 -0.989462,1.331921 -1.989675,2.645783 -3.039274,3.93075 -1.538473,1.788808 -3.554447,3.05789 -5.4741,4.392827 -2.89855,1.889975 -5.806847,3.774427 -8.432043,6.040807 -0.524556,0.452859 -1.025189,0.93271 -1.537784,1.399063 -2.796648,2.596488 -4.629085,5.754322 -6.189299,9.18397 -0.686574,1.451711 -1.037849,3.034226 -1.703466,4.493586 -1.664246,3.076265 -2.140225,6.476272 -0.804978,9.851329 0.53152,1.343504 1.614742,2.396386 2.422113,3.594579 2.660682,1.72499 3.917674,3.14897 7.334669,2.966169 1.681953,-0.08998 3.307924,-0.68123 4.903018,-1.222282 0.638384,-0.216541 1.165942,-0.677267 1.73982,-1.030949 3.349564,-2.064345 -0.757089,0.344699 2.915761,-1.779077 5.701533,-3.032141 11.533767,-5.811538 17.330005,-8.656704 3.92725,-2.050597 8.162139,-3.334937 12.413721,-4.509089 2.842783,-0.820362 5.708594,-1.545022 8.578479,-2.260934 6.047912,-1.538652 -3.773532,2.35017 -9.833356,-6.190141 -1.734735,-2.444822 0.81421,-5.96128 0.785207,-8.958881 -0.0037,-0.377746 -0.582867,0.481008 -0.864807,0.732437 -0.792676,0.706899 -1.572442,1.428141 -2.358665,2.142212 -4.200972,3.843867 -8.494437,7.591277 -12.5404,11.60136 -1.936208,1.919037 -2.881593,2.960101 -4.687544,4.888069 -2.817344,3.15463 -5.412777,6.543461 -7.325323,10.331873 -0.34155,0.67655 -0.635595,1.376056 -0.953394,2.064084 -1.138071,2.839182 -2.036808,5.835628 -2.025605,8.923644 0.0021,0.613248 0.07417,1.224261 0.111257,1.836393 0.630452,4.206986 1.939666,7.837557 7.366939,9.568482 2.990808,0.95386 6.285326,-0.637159 9.289706,-1.547363 0.524889,-0.159017 4.520359,-3.760261 4.950513,-4.140038 6.168946,-5.398347 12.514792,-10.598544 19.086139,-15.500771 1.264013,-0.942951 2.547038,-1.860145 3.820557,-2.790219 6.247606,-4.433366 12.517461,-8.833892 18.612358,-13.476488 3.023933,-2.41794 6.220875,-4.598252 9.391905,-6.814532 0.75613,-0.508775 1.49209,-1.046673 2.24394,-1.561602 0.20194,-0.138303 0.8342,-0.508625 0.61242,-0.405093 -0.65198,0.304355 -1.19469,1.105633 -1.90779,1.00979 -3.5507,-0.477211 -7.562408,-0.49426 -10.412071,-2.665572 -2.004894,-1.527634 -1.644828,-4.765245 -2.467242,-7.147868 0.003,-0.236767 0.216273,-0.824784 0.009,-0.710303 -0.346942,0.191624 -0.382293,0.694814 -0.591002,1.031756 -0.362532,0.585279 -0.738756,1.162128 -1.12214,1.733968 -1.762358,2.628669 -3.641588,5.175309 -5.499434,7.736476 -2.942661,4.006308 -5.500616,8.26034 -7.928215,12.590719 -1.629455,2.960484 -2.972134,6.061541 -4.232124,9.192797 -0.445286,1.263643 -0.982565,2.48743 -1.519532,3.712869 -1.266597,3.329088 -2.131459,7.363018 0.833491,10.615099 2.327624,2.553039 6.071618,3.471117 9.419632,4.323554 1.372484,0.349448 5.372547,-1.597433 6.704081,-2.18045 7.329329,-3.62004 13.962546,-8.456758 20.582316,-13.210786 0.93968,-0.665062 1.87699,-1.333471 2.81903,-1.995183 2.24489,-1.57688 2.96021,-2.095362 5.2197,-3.522565 2.41905,-1.527987 4.90809,-2.925725 7.40498,-4.320452 1.70675,-0.928481 2.34446,-1.289476 4.00905,-2.145763 0.28167,-0.144891 1.85535,-0.950741 2.34785,-1.133033 0.26592,-0.09843 -0.48795,0.333436 -0.77013,0.361246 -1.48118,0.145979 -2.97494,0.102963 -4.46241,0.154443 -10.71499,-8.98561 -4.81573,-1.878592 -7.21143,-7.961442 -0.0542,-0.137541 -0.12638,0.269292 -0.16247,0.412644 -0.15571,0.618484 -0.27722,1.245092 -0.41184,1.868506 -0.60457,2.799614 -0.66489,3.131441 -1.26099,6.031134 -1.11427,5.530488 -1.87551,11.124544 -2.10463,16.761968 -0.1193,2.062806 0.14588,4.108985 0.363,6.153735 0.47336,5.17071 2.62115,7.445782 10.77841,9.727946 2.51732,0.704273 4.83061,-2.046034 7.06632,-3.400462 0.31754,-0.192371 3.06029,-3.622593 3.25793,-3.866121 3.61641,-4.397558 7.19344,-8.832223 10.93803,-13.122018 1.00055,-1.097958 2.02212,-2.177754 3.06087,-3.239733 0.16625,-0.169968 0.3342,-0.338413 0.5073,-0.501396 0.0283,-0.0266 0.12808,-0.08769 0.0957,-0.06633 -0.8235,0.542952 -1.64601,1.087409 -2.46901,1.631111 -3.57634,-0.661847 -7.41868,-0.478901 -10.72901,-1.985539 -1.41845,-0.645586 -1.66487,-2.636988 -2.42126,-3.999582 -0.14436,-0.260053 -0.15399,-1.123666 -0.27092,-0.85018 -0.23686,0.553977 -0.0967,1.201137 -0.13619,1.802331 -0.23496,3.574703 -0.17299,2.726658 -0.27089,6.546125 0.0493,4.28103 -0.001,2.235711 0.13818,6.136283 0.51905,14.132618 20.50558,13.398574 19.98654,-0.734044 v 0 c -0.12081,-3.189338 -0.0753,-1.547381 -0.13038,-4.926034 0.0764,-3.545403 0.01,-2.098863 0.22951,-5.651172 0.10724,-1.731811 0.44927,-5.178409 -0.033,-6.710611 -0.62377,-1.981827 -0.97749,-4.541345 -2.7767,-5.580361 -3.32809,-1.921915 -7.50046,-1.680141 -11.25069,-2.520212 -1.06614,0.644586 -2.16414,1.239202 -3.19842,1.933757 -0.28066,0.188466 -1.46555,1.387237 -1.7027,1.629564 -1.26301,1.290598 -2.50005,2.607688 -3.70917,3.948795 -3.89337,4.476766 -7.63826,9.081376 -11.39841,13.669978 -0.4467,0.552654 -0.89866,1.101088 -1.34009,1.657961 -0.13831,0.174485 -0.61095,0.603576 -0.39886,0.535797 2.03003,-0.648758 3.96571,-3.063554 5.96041,-2.313164 4.09849,1.541817 6.80128,5.518962 10.12856,8.365704 0.0621,0.05315 0.0125,1.242309 -0.0253,-0.243949 -0.11736,-1.092723 -0.3098,-2.182995 -0.26352,-3.285429 0.14352,-4.536175 0.84958,-9.028467 1.70909,-13.479054 1.03691,-5.048179 0.20759,-1.048192 1.22714,-5.869792 0.28589,-1.352008 1.03638,-4.605705 1.01071,-5.94718 -0.0318,-1.662179 0.32593,-3.557008 -0.57504,-4.954191 -1.79312,-2.780716 -4.73043,-4.6275 -7.09564,-6.94125 -1.89839,-0.05714 -3.80186,-0.321508 -5.69516,-0.171413 -0.89005,0.07056 -1.71276,0.510287 -2.54832,0.824928 -0.52598,0.198067 -1.0235,0.46505 -1.52912,0.710488 -2.1096,1.024053 -4.16573,2.155174 -6.22331,3.278365 -2.89456,1.619824 -5.77614,3.249734 -8.57693,5.029454 -2.50858,1.594035 -3.42451,2.247066 -5.84255,3.946078 -0.979866,0.688496 -1.954832,1.383953 -2.93225,2.075928 -4.915186,3.531852 -9.822704,7.150563 -15.096085,10.140006 -0.696656,0.39493 -1.41659,0.74731 -2.124882,1.120965 -0.335606,0.17095 -1.278364,0.251865 -1.006811,0.51285 0.344998,0.331576 0.99383,-0.297445 1.431705,-0.104487 2.86226,1.261317 6.310143,1.971226 8.293293,4.390017 1.44126,1.757863 2.178958,6.04782 0.974077,8.608957 0.596992,-1.398823 1.228021,-2.783398 1.731949,-4.220583 0.940139,-2.337456 1.918965,-4.662024 3.123758,-6.878709 2.046753,-3.652329 4.181901,-7.252078 6.671566,-10.626696 2.13018,-2.937168 4.31619,-5.848863 6.28276,-8.900247 1.13309,-1.758137 2.61953,-4.160536 3.40008,-6.14721 0.45854,-1.167099 0.7468,-2.394122 1.1202,-3.591183 -0.73904,-2.952344 0.0211,-6.794728 -2.21712,-8.857031 -5.91033,-5.4459074 -9.18963,-4.2668497 -13.874199,-1.87954 -0.349343,0.178028 -0.653934,0.432843 -0.977546,0.654224 -0.753427,0.515415 -1.489334,1.056172 -2.247818,1.564312 -3.396048,2.374105 -6.814351,4.718029 -10.058082,7.30094 -5.984991,4.565607 -12.158945,8.870154 -18.289958,13.235826 -1.376947,1.007221 -2.764099,2.000636 -4.130844,3.021658 -6.961555,5.20061 -13.68789,10.711902 -20.224863,16.435589 -0.666586,0.590949 -1.348571,1.164968 -1.999756,1.772843 -0.131683,0.122925 -0.525131,0.418258 -0.345006,0.415965 2.551361,-0.03247 5.295802,-1.521511 7.637772,-0.50876 1.837489,0.794597 6.105395,4.203314 6.252155,7.434951 -0.0056,0.18439 5.29e-4,0.369509 -0.0167,0.553174 -0.01082,0.115068 -0.03428,0.229368 -0.06726,0.340136 -0.0075,0.02535 -0.05407,0.08636 -0.0519,0.06 0.04354,-0.528998 0.250852,-1.047414 0.39969,-1.549334 1.067684,-2.593824 2.783848,-4.825352 4.63404,-6.913285 1.431343,-1.532726 2.450219,-2.649603 3.961312,-4.150862 3.906973,-3.881541 8.069371,-7.492304 12.126183,-11.213277 0.241733,-0.22061 5.111186,-4.582565 5.280771,-5.051343 1.261459,-3.486978 4.077782,-7.598336 2.341959,-10.875105 -4.308668,-8.13356 -8.561451,-7.271046 -13.667018,-5.989846 -3.036427,0.76091 -6.070203,1.526097 -9.079039,2.392964 -5.439484,1.516879 -10.839318,3.226825 -15.875796,5.826372 -6.235481,3.060775 -12.5168,6.039512 -18.623957,9.35195 -0.653794,0.386112 -2.673587,1.536208 -3.52314,2.149424 -0.05481,0.03957 0.129869,-0.03822 0.196133,-0.0516 1.349713,-0.272613 2.674522,-0.795459 4.051448,-0.806315 3.183423,-0.02511 4.075661,1.135708 6.551685,2.811846 0.70848,1.100403 1.670232,2.074172 2.125437,3.301209 0.467011,1.258864 0.616855,2.644257 0.578104,3.986395 -0.04584,1.587699 -1.409848,4.345983 -0.462706,2.349447 0.166849,-0.35171 0.329457,-0.705416 0.494184,-1.058121 0.395385,-0.953474 0.770742,-1.906659 1.115862,-2.879656 0.0808,-0.227807 0.160599,-0.456153 0.230288,-0.6876 0.007,-0.02334 -0.0096,-0.0502 -0.0013,-0.07308 0.07171,-0.195953 0.159742,-0.385535 0.239614,-0.578302 0.234604,-0.605957 0.06344,-0.197924 0.489138,-1.045679 0.302908,-0.603228 0.437311,-1.048334 0.979316,-1.529431 2.347137,-2.24657 5.123058,-3.927494 7.821226,-5.71272 3.45713,-2.408679 6.903577,-4.885086 9.570778,-8.196487 1.236366,-1.527861 2.431822,-3.077272 3.601796,-4.656609 0.610926,-0.824685 1.818558,-2.444537 2.374816,-3.300926 0.467463,-0.719688 0.893043,-1.46573 1.339564,-2.198595 0.464315,-1.709113 1.93567,-3.441486 1.392941,-5.127338 -1.177017,-3.6560882 -3.26164,-7.2256092 -6.175393,-9.7280878 -2.16775,-1.86177413 -6.482559,-0.7321725 -9.059783,0.1086424 -2.292879,0.7897908 -4.602541,1.5296187 -6.892555,2.3284836 -4.001442,1.4096534 -8.059454,2.671324 -11.976142,4.3104127 -4.140619,1.7025651 -8.27431,3.4223871 -12.38899,5.1867571 -1.36161,0.627112 -2.72668,1.246135 -4.071514,1.90879 -0.359755,0.177266 -0.718974,0.355665 -1.076181,0.538011 -0.127775,0.06523 -0.520177,0.227936 -0.378621,0.204633 0.218207,-0.03592 0.411321,-0.162581 0.616982,-0.243872 -13.241618,4.965639 -6.2191448,23.692233 7.022558,18.726597 z" />
  </g>
</svg>
