<?xml version="1.0" encoding="UTF-8" standalone="no"?>
<!-- Created with Inkscape (http://www.inkscape.org/) -->

<svg
   width="300"
   height="300"
   viewBox="0 0 79.375 79.375002"
   version="1.1"
   id="svg5"
   inkscape:version="1.1 (c68e22c387, 2021-05-23)"
   sodipodi:docname="cooarchi_background3.svg"
   xmlns:inkscape="http://www.inkscape.org/namespaces/inkscape"
   xmlns:sodipodi="http://sodipodi.sourceforge.net/DTD/sodipodi-0.dtd"
   xmlns="http://www.w3.org/2000/svg"
   xmlns:svg="http://www.w3.org/2000/svg">
  <sodipodi:namedview
     id="namedview7"
     pagecolor="#ffffff"
     bordercolor="#666666"
     borderopacity="1.0"
     inkscape:pageshadow="2"
     inkscape:pageopacity="0.0"
     inkscape:pagecheckerboard="0"
     inkscape:document-units="mm"
     showgrid="false"
     units="px"
     inkscape:zoom="1.0985947"
     inkscape:cx="352.26821"
     inkscape:cy="263.51846"
     inkscape:window-width="1347"
     inkscape:window-height="1041"
     inkscape:window-x="535"
     inkscape:window-y="28"
     inkscape:window-maximized="0"
     inkscape:current-layer="layer1"
     width="300px" />
  <defs
     id="defs2" />
  <g
     inkscape:label="Ebene 1"
     inkscape:groupmode="layer"
     id="layer1">
    <circle
       id="path114"
       style="fill:#000000;stroke:#000000;stroke-width:0.264583"
       cx="42.574539"
       cy="-33.037842"
       r="0.34025624" />
    <rect
       style="fill:#ff0000;stroke-width:0.110702"
       id="rect573"
       width="79.723053"
       height="79.358948"
       x="128.22556"
       y="33.717319" />
    <path
       style="fill:#ffffff;stroke-width:0.264583"
       id="path1322"
       d="m 55.23526,4.2567404 c -1.258681,1.1758049 -2.651929,2.1862479 -4.181263,2.9837441 -0.65694,0.3425711 -1.333678,0.6457574 -2.000515,0.9686361 -6.006597,2.4575294 -12.278156,4.1804534 -18.542854,5.8364454 -1.152044,0.308737 -2.840318,0.729093 -3.993581,1.150281 -0.576129,0.21041 -1.183221,0.377406 -1.695706,0.714386 -1.022209,0.672144 -2.730251,1.072324 -2.869942,2.287716 -0.420795,3.661182 -0.06659,7.569737 1.345757,10.973644 0.55044,1.326615 2.623621,1.169688 3.93543,1.754534 0.959577,0.168558 1.915491,0.3595 2.878733,0.505677 1.676455,0.254415 4.558178,0.560083 6.200425,0.731258 2.985918,0.311232 5.975004,0.584874 8.965764,0.844343 2.744337,0.259025 5.500769,0.472239 8.21469,0.970587 1.040498,0.132305 2.03436,0.445384 3.044219,0.711894 0.333904,0.183798 0.757016,0.127288 1.107639,0.274854 0.05607,0.0236 -0.125913,-0.0061 -0.178927,-0.03592 -0.813441,-0.457755 -1.981388,-0.594124 -2.412138,-1.422178 -3.434236,-6.601809 -2.841035,-5.898208 -0.285062,-10.347456 -0.225827,0.0634 -0.455626,0.114079 -0.677487,0.190213 -3.536791,1.213679 -1.581703,0.713426 -5.944758,1.925343 -4.316225,1.19891 -8.695812,2.159552 -13.059696,3.16437 -4.963983,1.253281 -9.998365,2.278883 -14.869386,3.877527 -0.731148,0.239959 -1.452039,0.510109 -2.178059,0.765165 -3.07273,1.086614 -6.017692,2.47411 -8.8949659,3.995647 -2.851939,1.547545 -8.008159,3.947094 -6.7534115,8.399592 2.3849063,8.462891 6.1265223,7.687508 11.4129334,7.846878 11.061187,-0.286544 22.121856,-0.589309 33.184183,-0.831562 4.806953,-0.06372 9.616377,-0.178321 14.397696,-0.704191 1.126937,-0.156996 2.245545,-0.355627 3.350437,-0.627679 0.245962,-0.06056 0.489025,-0.132355 0.733783,-0.197617 0.36476,-0.09726 0.237633,-0.115097 0.390361,-0.08829 -0.131173,-0.01188 0.178297,-0.0088 0.134244,-0.0011 -0.478645,0.08538 -0.550222,0.07001 -0.912125,0.01582 -0.260069,-0.08034 -0.547393,-0.09999 -0.780214,-0.241009 -3.960645,-2.398911 -4.234801,-3.052088 -3.789904,-9.666311 0.07437,-1.10559 1.377902,-1.7374 2.013836,-2.644838 0.02921,-0.04168 -0.105648,-0.03194 -0.152265,-0.01151 -0.558657,0.244906 -1.097275,0.533196 -1.645912,0.799796 -0.794517,0.376087 -1.588429,0.753462 -2.383555,1.128265 -2.633792,1.241505 -3.708061,1.759876 -6.431848,2.947826 -3.465785,1.511568 -6.978399,2.910293 -10.487298,4.31745 -5.261364,2.0525 -10.639726,3.780509 -15.938056,5.732386 -2.019046,0.829508 -4.13964,1.523079 -5.985639,2.719715 -0.402124,0.260668 -0.875103,0.460476 -1.165544,0.841653 -0.988932,1.297884 -1.749558,2.754818 -2.624336,4.132225 0.663941,2.446081 0.625472,5.203479 1.991822,7.33824 0.849858,1.327804 2.683842,1.691206 4.15315,2.262566 0.928975,0.361244 5.466611,0.70983 6.238813,0.774573 2.788473,0.233791 5.579687,0.433681 8.369255,0.65401 3.705177,0.307253 7.406216,0.667391 11.098911,1.100199 1.666261,0.195297 3.160903,0.360706 4.794991,0.690581 0.616804,0.124515 1.223838,0.293312 1.835755,0.439965 2.457757,0.793636 1.230286,0.34676 3.679955,1.347372 9.861227,3.905909 15.385018,-10.039972 5.523791,-13.945883 v 0 C 59.529704,60.10508 61.47132,60.774084 57.575402,59.59131 56.65575,59.383546 55.741852,59.148408 54.81644,58.968017 52.91197,58.596781 51.151213,58.39216 49.223951,58.166835 c -3.852469,-0.45041 -7.713546,-0.82569 -11.57894,-1.145886 -2.738688,-0.216294 -5.478359,-0.420124 -8.216667,-0.641176 -0.892714,-0.07206 -1.783984,-0.161634 -2.676943,-0.230602 -0.273449,-0.02111 -1.017042,-0.232276 -0.821835,-0.03962 4.996579,4.93114 1.504519,-3.060404 4.254656,8.775506 -1.74929,2.562342 -1.358871,3.042346 -3.001312,3.969592 -0.03261,0.01841 0.04972,-0.05795 0.08223,-0.07653 0.182208,-0.104116 0.367874,-0.202927 0.558898,-0.289819 0.870921,-0.39615 1.985899,-0.820795 2.851057,-1.162881 5.429665,-2.00334 10.947151,-3.762287 16.333234,-5.884444 6.845234,-2.745835 13.667031,-5.555488 20.281993,-8.827524 2.030841,-0.989369 6.439357,-2.85074 6.830454,-5.323562 1.033026,-6.531599 0.212926,-7.89596 -3.87799,-10.414746 -0.419645,-0.258373 -0.926576,-0.335992 -1.389864,-0.503989 -0.374298,-0.08411 -0.746067,-0.180409 -1.122897,-0.252325 -1.60768,-0.306819 -3.264347,-0.253172 -4.86551,0.05769 -1.053463,0.229463 -2.0817,0.549638 -3.150704,0.704924 -4.332769,0.498737 -8.699349,0.528297 -13.054956,0.614403 -10.898677,0.238712 -21.796036,0.52642 -32.693099,0.828849 -5.608038,0.178298 2.440922,-0.563112 3.422053,7.418173 0.552462,4.494157 -6.303697,7.3782 -2.312646,5.174451 0.365351,-0.201737 0.735518,-0.394626 1.103277,-0.591936 2.221876,-1.186389 4.49917,-2.261632 6.875433,-3.106989 5.012473,-1.802601 10.235311,-2.88843 15.398464,-4.16202 4.69828,-1.082183 9.418415,-2.110854 14.057762,-3.430722 2.573438,-0.732129 5.851845,-1.733733 8.320601,-2.876035 1.06526,-0.492897 2.05536,-1.134197 3.083038,-1.701297 1.132137,-1.452999 3.167105,-2.531329 3.396412,-4.358994 0.340029,-2.710164 -0.665748,-5.520814 -1.847914,-7.983148 C 64.806406,21.340155 61.86266,20.52712 60.308992,20.171936 58.93237,19.825359 57.57102,19.416294 56.160942,19.217199 52.989625,18.649793 49.780388,18.344491 46.572767,18.063323 41.453546,17.62006 36.336729,17.135318 31.240783,16.471454 c 4.019692,2.821602 3.529308,1.867185 2.139796,11.440997 -0.214048,1.474804 -4.265062,2.096413 -1.179137,1.209178 0.7116,-0.204592 1.430367,-0.383376 2.145549,-0.575067 7.236309,-1.915901 14.485302,-3.91978 21.369573,-6.898686 0.994185,-0.500667 2.005689,-0.96833 2.982555,-1.502003 2.207321,-1.205885 4.280199,-2.671677 6.138905,-4.36593 C 72.98624,8.9897639 63.383477,-2.5335525 55.23526,4.2566267 Z" />
  </g>
</svg>
