<?xml version="1.0" encoding="UTF-8" standalone="no"?>
<!-- Created with Inkscape (http://www.inkscape.org/) -->

<svg
   width="300"
   height="300"
   viewBox="0 0 79.375 79.375002"
   version="1.1"
   id="svg5"
   inkscape:version="1.1 (c68e22c387, 2021-05-23)"
   sodipodi:docname="cooarchi_background5.svg"
   xmlns:inkscape="http://www.inkscape.org/namespaces/inkscape"
   xmlns:sodipodi="http://sodipodi.sourceforge.net/DTD/sodipodi-0.dtd"
   xmlns="http://www.w3.org/2000/svg"
   xmlns:svg="http://www.w3.org/2000/svg">
  <sodipodi:namedview
     id="namedview7"
     pagecolor="#ffffff"
     bordercolor="#666666"
     borderopacity="1.0"
     inkscape:pageshadow="2"
     inkscape:pageopacity="0.0"
     inkscape:pagecheckerboard="0"
     inkscape:document-units="mm"
     showgrid="false"
     units="px"
     inkscape:zoom="1.0985947"
     inkscape:cx="352.26821"
     inkscape:cy="263.51846"
     inkscape:window-width="1347"
     inkscape:window-height="1041"
     inkscape:window-x="535"
     inkscape:window-y="28"
     inkscape:window-maximized="0"
     inkscape:current-layer="layer1"
     width="300px" />
  <defs
     id="defs2" />
  <g
     inkscape:label="Ebene 1"
     inkscape:groupmode="layer"
     id="layer1">
    <circle
       id="path114"
       style="fill:#000000;stroke:#000000;stroke-width:0.264583"
       cx="42.574539"
       cy="-33.037842"
       r="0.34025624" />
    <rect
       style="fill:#ff0000;stroke-width:0.110702"
       id="rect573"
       width="79.723053"
       height="79.358948"
       x="114.97946"
       y="60.932011" />
    <path
       style="fill:#ffffff;stroke-width:0.264583"
       id="path1734"
       d="m 11.937239,29.696275 c 1.846786,-0.582877 3.580581,-1.471528 5.280682,-2.386301 1.872398,-1.081469 3.752392,-2.147724 5.599983,-3.271437 0.958139,-0.517116 1.89104,-1.090386 2.874013,-1.560833 0.333789,-0.15975 0.682316,-0.286725 1.021734,-0.434139 0.256934,-0.115923 0.512577,-0.234748 0.7708,-0.347768 0.515935,-0.225815 1.028329,-0.464907 1.548185,-0.681345 0.03984,-0.01659 -0.07259,0.04716 -0.111567,0.06567 -0.08526,0.02773 -0.32449,0.02559 -0.255791,0.0832 0.07467,0.06261 0.190593,-0.04099 0.286663,-0.05731 0.04618,-0.0078 0.09307,-0.01081 0.139716,-0.01511 0.431453,-0.0398 0.858131,-0.07698 1.290111,-0.124398 0.458533,-0.05403 0.916162,-0.116132 1.375508,-0.163207 0.08582,-0.0088 0.343929,-0.02082 0.257712,-0.0239 -0.582258,-0.02086 -1.186995,0.129063 -1.74765,-0.02946 -1.090742,-0.308399 -2.08144,-0.898295 -3.12216,-1.347443 -1.219451,-1.148891 -0.519904,-0.427044 -1.07513,-1.068149 -0.02957,-0.03414 -0.178254,-0.149238 -0.188988,-0.190982 -0.06775,-0.263452 -0.110466,-0.532714 -0.165699,-0.799072 -0.01664,-0.109194 0.03103,-0.252426 -0.04991,-0.327583 -0.05131,-0.04764 -0.07803,0.116614 -0.110471,0.178663 -0.07062,0.135045 -0.128443,0.276499 -0.198349,0.411913 -0.303734,0.588359 -0.638582,1.158538 -0.988836,1.719974 -0.950503,1.575891 -2.099459,3.021568 -3.190403,4.500941 -1.528427,2.048376 -3.156151,4.019978 -4.717632,6.044229 -1.666107,2.129287 -3.323895,4.262392 -4.897563,6.461215 -1.307135,1.857951 -2.3278299,3.88925 -3.2967632,5.937191 -0.8893796,2.146837 -1.8570323,4.587751 -1.5103935,6.967265 0.1452899,0.997345 0.5542306,1.938055 0.8313457,2.907083 0.8851744,1.034132 1.5465663,2.31298 2.655523,3.102396 2.926499,2.083242 6.131112,1.645245 9.249511,0.706416 1.198703,-0.36835 2.32378,-0.894755 3.434963,-1.469837 1.177146,-0.666927 2.445874,-1.138039 3.692978,-1.653939 2.082441,-0.864804 4.142478,-1.7828 6.212224,-2.677523 2.231527,-0.966647 4.416906,-2.037151 6.564963,-3.176299 2.137669,-1.070893 4.171225,-2.328958 6.248315,-3.508576 2.112463,-1.18123 4.191815,-2.410666 6.148113,-3.83753 1.492628,-1.101802 2.910374,-2.298959 4.356494,-3.460506 0.997463,-0.760138 1.959409,-1.569543 2.985283,-2.291924 0.680236,-0.494467 1.398638,-0.933464 2.118844,-1.367129 0.289073,-0.06223 0.874387,-0.467712 1.19675,-0.638077 0.06794,-0.0359 0.136885,-0.0701 0.207402,-0.100618 0.0097,-0.0042 0.04008,-0.0088 0.03144,-0.0028 -0.03419,0.02379 -0.07382,0.03861 -0.110726,0.05791 1.276858,-0.33555 -0.893021,0.07273 0.209979,0.01045 -0.115803,-0.01169 0.497721,-0.0044 0.373451,-0.01281 -0.460361,-0.03134 -0.927293,0.0013 -1.382201,-0.07592 -0.622578,-0.105778 -1.687984,-0.439846 -2.250284,-0.845622 -0.51457,-0.371334 -0.967203,-0.821708 -1.450803,-1.232564 -0.298784,-0.445169 -0.597564,-0.890341 -0.896345,-1.33551 -0.01963,0.01849 -0.07691,-0.104302 -0.0803,-0.06914 -0.02487,0.25795 0.09103,0.862883 0.114858,1.13815 -0.0048,0.05609 0.0066,0.220517 -0.01442,0.16828 -0.04628,-0.115141 -0.05641,-0.41879 -0.03914,-0.549375 0.0092,-0.06917 0.05175,-0.136951 0.03929,-0.205608 -0.0055,-0.03047 -0.04298,0.0446 -0.06447,0.0669 -0.818507,1.356839 -1.674135,2.687836 -2.559116,4.002355 -0.911857,1.393201 -1.992593,2.658523 -3.04061,3.947737 -1.23833,1.299231 -2.467433,2.618655 -3.80964,3.812209 -1.570215,1.323565 -3.18412,2.594306 -4.755166,3.918183 -1.914837,1.612823 -3.552124,3.509634 -5.261885,5.328557 -1.435425,1.467488 -2.857524,2.946929 -4.266594,4.439759 -1.170736,1.261716 -2.281439,2.57752 -3.372416,3.908282 -2.18085,2.80198 -3.214077,5.510181 -2.127719,9.237451 0.321067,1.101574 1.183328,1.966195 1.774992,2.949291 0.665036,0.548069 1.28828,1.151203 1.995104,1.644203 0.447402,0.312058 0.954167,0.531194 1.449948,0.758685 1.565352,0.718262 3.240844,0.94483 4.936858,1.083577 3.12289,0.16061 6.157039,-0.682614 9.117727,-1.569974 2.752979,-0.917948 5.423609,-2.05767 8.070429,-3.241492 1.519698,-0.664607 3.017142,-1.402292 4.629542,-1.815859 1.790176,-0.414605 3.54191,-0.966341 5.293574,-1.516319 0.156443,-0.05179 0.958445,-0.318659 1.193503,-0.392319 0.100174,-0.03139 0.405281,-0.108352 0.302118,-0.08892 -0.460492,0.08675 -0.907881,0.258106 -1.37531,0.291092 -1.064771,0.07514 -1.299972,-0.01775 -2.102215,-0.214564 C 61.719849,64.843568 60.87745,63.965533 60.010551,62.674496 59.90367,62.51532 59.838008,62.332 59.756239,62.158582 c -0.03516,-0.07456 -0.02862,-0.180755 -0.09634,-0.227769 -0.04544,-0.03155 0.0047,0.110537 0.0071,0.165804 0.05159,0.649409 0.04419,1.301345 0.04236,1.952204 -0.0062,1.093036 0.0019,0.185346 -0.0061,0.167198 -0.02408,-0.05507 -0.006,0.121169 -0.02283,0.178872 -0.01019,0.03488 0.01482,-0.143124 0.0024,-0.108964 -0.0279,0.07702 -0.02598,0.162298 -0.0501,0.240578 -0.01505,0.04887 0.01513,-0.101137 0.0227,-0.151707 -0.02122,0.07052 -0.08645,0.281604 -0.06368,0.211564 0.39142,-1.204339 -0.337724,0.652158 0.440063,-1.00429 0.02096,-0.04463 -0.06688,0.07246 -0.100319,0.108688 -0.645493,0.827426 -1.27126,1.669775 -1.921201,2.493754 -0.240802,0.305284 -0.251991,0.390562 -0.223361,0.243086 -0.08869,0.09435 -0.177387,0.188695 -0.266081,0.283043 -7.264823,7.728021 3.664249,18.00203 10.929073,10.274009 v 0 c 0.09173,-0.09758 0.183459,-0.19516 0.275187,-0.292738 1.042763,-1.151033 1.981322,-2.384764 2.91505,-3.625281 1.105762,-1.412682 2.024634,-2.937362 2.471862,-4.69097 0.357589,-1.403821 0.631264,-2.832637 0.597238,-4.289679 0.0029,-1.305232 -0.0082,-2.612847 -0.165867,-3.910676 -0.200059,-1.404422 -0.416867,-2.873592 -1.086877,-4.149503 -1.223983,-2.330847 -2.578406,-3.687889 -5.004204,-4.721484 -1.478611,-0.474136 -1.974178,-0.727647 -3.766746,-0.709446 -1.405186,0.01426 -2.672019,0.416441 -3.965893,0.864984 -1.626161,0.510587 -3.251816,1.020588 -4.914754,1.402842 -0.538038,0.159573 -1.080894,0.303712 -1.614112,0.478716 -1.722636,0.565374 -3.364804,1.349666 -5.025281,2.069036 -2.068661,0.925293 -4.151236,1.822908 -6.289942,2.577005 -1.216314,0.373001 -2.464446,0.743846 -3.706548,0.965223 -0.09323,-0.0028 -0.186942,-0.01828 -0.279675,-0.0083 -0.01699,0.0019 0.02249,0.02736 0.03811,0.03427 0.102973,0.04559 0.212151,0.07624 0.315018,0.122071 0.720685,0.321056 1.25622,0.944097 1.797756,1.486287 0.389695,0.750771 0.989754,1.425657 1.16908,2.252313 0.247346,1.140187 0.169381,2.336069 0.07862,3.499241 -0.03262,0.418 -0.276905,0.792279 -0.443508,1.177026 -0.05082,0.117364 -0.131831,0.219522 -0.206259,0.32353 -0.03062,0.04279 -0.130236,0.162914 -0.107783,0.115329 0.03891,-0.08248 0.105706,-0.148635 0.158559,-0.222951 0.859558,-1.057879 1.744668,-2.095948 2.66427,-3.102131 1.419643,-1.504027 2.854772,-2.992094 4.298177,-4.473321 1.308021,-1.396577 2.554002,-2.858207 3.992788,-4.124786 1.709248,-1.443013 3.47986,-2.810285 5.167053,-4.278632 1.882439,-1.727129 3.687061,-3.545904 5.373679,-5.465284 1.326708,-1.637832 2.68092,-3.256166 3.836911,-5.023601 1.119402,-1.662724 2.196023,-3.351927 3.218196,-5.076071 0.545798,-1.023234 0.790853,-1.397609 1.191323,-2.536378 0.639125,-1.817399 0.864376,-3.749143 0.71813,-5.666483 -0.153149,-1.543547 -0.354682,-3.066547 -0.816523,-4.554374 -0.113908,-0.366954 -0.223107,-0.73957 -0.397261,-1.082062 -0.386281,-0.759665 -0.852485,-1.47597 -1.278726,-2.213955 -0.630584,-0.589313 -1.211128,-1.237211 -1.891755,-1.76794 -0.404143,-0.315135 -0.869013,-0.552124 -1.340668,-0.752583 -1.513527,-0.643271 -3.119162,-0.893186 -4.750734,-0.734801 -1.449982,0.115484 -2.90849,0.308193 -4.264501,0.866878 -1.366462,0.530982 -2.650196,1.212396 -3.924824,1.93348 -1.043066,0.633709 -2.082699,1.277131 -3.070981,1.994284 -1.251434,0.900829 -2.455458,1.864415 -3.671115,2.812395 -0.917805,0.741358 -0.403585,0.331146 -1.546551,1.225742 -0.778898,0.628404 -1.503558,1.321888 -2.343351,1.873979 -1.436954,1.114787 -3.084631,1.918776 -4.638976,2.852166 -1.948545,1.114858 -3.861903,2.291897 -5.869879,3.299907 -1.784255,0.95672 -3.610483,1.83642 -5.46571,2.646889 -1.996709,0.863695 -3.984245,1.74939 -5.992937,2.584754 -1.663952,0.688462 -3.341746,1.35187 -4.919312,2.227405 -0.156498,0.08249 -1.226991,0.625568 -0.08755,0.09778 0.111116,-0.05147 -0.228134,0.08918 -0.340856,0.137033 -0.01116,0.0047 -0.02006,0.01363 -0.03009,0.02043 -0.137974,0.04907 -0.275948,0.09814 -0.413923,0.147214 -0.07623,0.02766 -0.151801,0.0571 -0.227703,0.08565 0.130516,0.0094 0.08428,-0.0013 -0.128681,0.06101 0.596383,0.06136 0.787825,-0.159509 1.430152,0.0783 3.618805,1.339768 2.600232,0.915656 5.028916,4.013739 0.170832,0.739688 0.434759,1.463892 0.512497,2.219061 0.05036,0.489214 -0.07588,0.980919 -0.132802,1.469416 -0.0042,0.03619 -0.04106,0.132691 -0.04976,0.09731 -0.06171,-0.250928 0.278918,-0.712126 0.307115,-0.956204 0.579013,-1.234051 1.167932,-2.469742 1.927814,-3.605228 1.468667,-2.052873 3.022563,-4.039182 4.575995,-6.028473 1.627418,-2.109838 3.326035,-4.163171 4.912971,-6.303206 1.356353,-1.839293 2.767481,-3.646765 3.937027,-5.614334 1.773634,-2.957172 3.304122,-6.066557 3.527203,-9.573348 -0.048,-0.812761 -0.04264,-1.630452 -0.14398,-2.438312 C 40.360129,13.431579 39.337226,10.960185 38.312431,9.6263834 37.841036,9.012847 37.2819,8.4720125 36.766634,7.8948268 35.507213,7.2628238 34.326099,6.4415939 32.988369,5.9988179 31.629807,5.5491467 30.071917,5.9248161 28.684828,6.0628027 27.278785,6.2360201 25.85627,6.3223991 24.49351,6.7484468 23.202392,7.1731015 21.967697,7.7277155 20.730544,8.2884644 18.763856,9.1449759 16.861452,10.127079 15.01806,11.225926 c -1.627148,0.991598 -3.286364,1.925988 -4.931168,2.887498 -0.9336788,0.507651 -1.8743135,1.042103 -2.8931189,1.35261 -10.062253,3.354097 -5.3188377,17.584342 4.7434659,14.230241 z" />
  </g>
</svg>
