<?xml version="1.0" encoding="UTF-8" standalone="no"?>
<!-- Created with Inkscape (http://www.inkscape.org/) -->

<svg
   width="600"
   height="300"
   viewBox="0 0 158.75 79.375002"
   version="1.1"
   id="svg5"
   inkscape:version="1.1 (c68e22c387, 2021-05-23)"
   sodipodi:docname="cooarchi_background2.svg"
   xmlns:inkscape="http://www.inkscape.org/namespaces/inkscape"
   xmlns:sodipodi="http://sodipodi.sourceforge.net/DTD/sodipodi-0.dtd"
   xmlns="http://www.w3.org/2000/svg"
   xmlns:svg="http://www.w3.org/2000/svg">
  <sodipodi:namedview
     id="namedview7"
     pagecolor="#ffffff"
     bordercolor="#666666"
     borderopacity="1.0"
     inkscape:pageshadow="2"
     inkscape:pageopacity="0.0"
     inkscape:pagecheckerboard="0"
     inkscape:document-units="mm"
     showgrid="false"
     units="px"
     inkscape:zoom="1.0985947"
     inkscape:cx="352.26821"
     inkscape:cy="263.51846"
     inkscape:window-width="1347"
     inkscape:window-height="1041"
     inkscape:window-x="535"
     inkscape:window-y="28"
     inkscape:window-maximized="0"
     inkscape:current-layer="layer1" />
  <defs
     id="defs2" />
  <g
     inkscape:label="Ebene 1"
     inkscape:groupmode="layer"
     id="layer1">
    <circle
       id="path114"
       style="fill:#000000;stroke:#000000;stroke-width:0.264583"
       cx="42.574539"
       cy="-33.037842"
       r="0.34025624" />
    <rect
       style="fill:#ff0000;stroke-width:0.156198"
       id="rect573"
       width="158.71791"
       height="79.358948"
       x="-0.38192189"
       y="105.96871" />
    <path
       style="fill:#ffffff;stroke-width:0.264583"
       id="path967"
       d="m 15.158371,58.876347 c 2.102611,-0.955828 3.72961,-2.533562 5.409163,-4.062047 0.567382,-0.516348 1.516817,-1.30374 2.06081,-1.761921 3.99316,-3.322826 8.108815,-6.493021 12.213277,-9.675847 2.322158,-1.847646 4.725152,-3.584252 7.116474,-5.339302 1.61978,-1.131187 3.197601,-2.319065 4.829937,-3.432006 0.09065,-0.0538 0.362562,-0.215267 0.271955,-0.161393 -5.773364,3.432834 -9.558009,0.262136 -13.56922,-4.359 -0.153564,-0.176911 -0.61418,-2.607024 -0.841015,-3.795869 -1.012708,3.175868 -2.010034,6.35784 -2.993694,9.543373 -0.89145,3.007998 -1.790761,6.012326 -2.771407,8.992666 -0.476073,1.517211 -1.370751,4.214747 -1.074173,5.698451 0.421396,2.108133 0.449859,4.656859 2.02045,6.124868 2.450385,2.290334 5.854242,3.463219 9.108162,4.276868 1.371296,0.342895 2.752556,-0.64462 4.128836,-0.96693 4.641218,-1.928286 8.98139,-4.503883 13.208167,-7.203493 4.133201,-2.718274 8.02401,-5.776061 11.782954,-8.985737 3.115262,-2.739451 6.064159,-5.657133 9.257508,-8.306853 1.661838,-1.360059 3.315843,-2.761649 5.188072,-3.830076 0.482891,-0.275572 1.773483,-0.928352 2.218214,-1.156087 0.31582,-0.146671 1.282411,-0.535201 0.947457,-0.440012 -4.083672,1.160502 -3.322302,3.18794 -10.081049,-1.70974 -1.669256,-1.209617 -1.96706,-3.62866 -2.797754,-5.515334 -0.145449,-0.330345 0.196993,-0.880245 -0.10514,-1.077727 -0.241242,-0.157683 -0.204833,0.538786 -0.307247,0.808179 -1.49542,4.196225 -3.011229,8.385019 -4.392936,12.620368 -1.009144,3.258148 -1.931834,6.546136 -2.574586,9.897335 -0.424426,2.535044 -0.483846,5.114057 -0.425733,7.678198 0.40857,2.814171 0.495027,5.423685 3.23573,7.547258 2.183236,1.691632 4.98285,2.571813 7.70233,3.054072 1.446699,0.25655 2.914745,-0.463124 4.309901,-0.923883 1.69754,-0.560626 3.553875,-1.982361 5.005282,-2.981632 3.345886,-2.628027 6.445149,-5.563491 9.275222,-8.739581 1.699895,-1.907731 2.961675,-3.509119 4.566963,-5.488168 2.252744,-2.802726 4.431459,-5.700313 7.076609,-8.155546 0.99672,-0.925157 1.76963,-1.48632 2.83806,-2.313275 0.71064,-0.530704 1.57188,-1.19992 2.33876,-1.692876 0.0968,-0.06224 0.41332,-0.202832 0.3099,-0.152299 -2.92675,1.430181 -4.58067,2.599782 -8.8749,0.201485 -2.288363,-1.278035 -3.265668,-4.100647 -4.898499,-6.150972 -0.08532,-0.630988 -0.170629,-1.261976 -0.255947,-1.892964 -0.01537,-0.04123 -0.03229,-0.165483 -0.04611,-0.123702 -0.08766,0.265059 -0.118354,0.545715 -0.183266,0.817244 -0.324605,1.357812 -0.637376,2.715825 -0.93235,4.080671 -0.500475,2.22033 -1.043614,4.430731 -1.555292,6.64854 -0.625954,2.602081 -1.005446,5.252243 -1.274834,7.912126 -0.186981,1.773933 -0.1958,3.56558 0.06928,5.332603 0.102137,0.680849 0.271605,1.424821 0.421907,2.111462 0.219424,1.0541 0.368707,2.11814 0.581943,3.174265 1.330198,4.466894 1.295249,5.426977 9.377348,8.199998 2.03689,0.698868 4.25601,-0.772195 6.28588,-1.491173 0.91862,-0.325372 1.64741,-1.042893 2.44588,-1.601608 1.17498,-0.822182 4.05627,-3.088399 5.04506,-3.85685 4.71555,-3.710122 9.29236,-7.600987 13.63857,-11.739247 2.31727,-2.206405 2.96169,-2.906088 5.10716,-5.109112 1.35623,-1.491538 2.79588,-2.909631 4.11362,-4.436655 0.61448,-0.712084 1.17836,-1.459172 1.77614,-2.183744 -2.98258,3.264305 -4.03447,4.791517 -12.08969,2.375427 -5.23854,-1.571258 -4.50032,-4.211297 -5.15036,-7.153588 -0.005,-0.02122 -0.0103,0.04255 -0.011,0.06428 -0.004,0.115433 -0.001,0.230971 -0.002,0.346459 -0.11882,2.084853 0.17487,4.146381 0.49268,6.20091 0.56456,2.94395 1.24715,5.875557 2.26938,8.698367 0.52,1.435936 1.01385,2.521786 1.61195,3.897157 0.50365,1.171831 1.13696,2.281618 1.67763,3.435424 0.22092,0.471429 0.36529,0.998781 0.53194,1.488151 0.13523,0.376685 0.27047,0.753367 0.4057,1.130049 4.78627,13.307589 23.60604,6.538785 18.81977,-6.768801 v 0 c -0.10914,-0.302768 -0.21828,-0.605533 -0.32741,-0.908301 -0.36676,-1.048324 -0.53963,-1.589643 -0.97475,-2.63098 -0.53615,-1.283181 -1.20855,-2.500511 -1.80645,-3.754474 -0.11839,-0.269087 -0.84514,-1.908345 -0.98058,-2.260249 -0.67352,-1.749845 -1.06829,-3.587416 -1.46701,-5.414327 -0.0604,-0.380876 -0.1177,-0.762238 -0.18109,-1.142624 -0.0191,-0.114816 -0.023,-0.234836 -0.0664,-0.342826 -0.014,-0.03491 -0.0258,0.147071 -0.0275,0.109479 -0.0258,-0.606168 0.0514,-1.21639 0.0219,-1.822815 -0.004,-0.545984 -0.002,-1.396148 -0.0506,-1.914526 -0.0558,-0.594146 0.0846,-1.265534 -0.22418,-1.776201 -1.5191,-2.512301 -2.38906,-6.176361 -5.16404,-7.134886 -8.05956,-2.783902 -9.48177,-0.785378 -12.79913,2.628211 -0.38925,0.478968 -0.75205,0.989203 -1.15348,1.457468 -1.14516,1.335808 -2.40839,2.566339 -3.58594,3.87246 -1.8559,1.912979 -2.38052,2.486336 -4.39509,4.412268 -3.91068,3.738596 -8.04027,7.242762 -12.28904,10.590122 -0.84696,0.659302 -1.6903,1.32329 -2.5409,1.977906 -0.55943,0.430548 -1.140756,0.832919 -1.689102,1.277511 -0.06923,0.05613 -0.243845,0.226404 -0.155136,0.217776 1.564418,-0.152167 3.244848,-1.321027 4.669438,-0.656867 7.5502,3.51999 7.37762,3.493613 8.3743,7.428436 0.005,0.04873 0.0224,0.194379 0.0138,0.146203 -0.0618,-0.343008 -0.10934,-0.688432 -0.16549,-1.032409 -0.15015,-0.919819 -0.11817,-0.787691 -0.28552,-1.605764 -0.0458,-0.22396 -0.0948,-0.447263 -0.14218,-0.670894 -0.0431,-0.19654 -0.072,-0.396737 -0.12934,-0.589621 -0.0732,-0.246488 0.0366,0.632214 -0.0443,0.351925 -0.0874,-0.302572 0.20591,-0.669274 0.0474,-0.943605 0.17631,-1.81579 0.42905,-3.62553 0.86182,-5.400082 0.53218,-2.308881 1.10077,-4.609216 1.61631,-6.921884 0.29493,-1.367536 0.62352,-2.723774 0.93383,-4.08754 0.21198,-0.931619 0.62007,-2.879201 0.64333,-3.724133 0.0323,-1.171863 -0.10661,-2.342189 -0.15991,-3.513284 -1.70935,-2.404574 -2.63097,-5.642609 -5.12806,-7.213721 -3.99057,-2.510773 -7.42836,-1.445681 -10.85782,0.188577 -0.547653,0.260975 -1.044046,0.619004 -1.550853,0.952438 -1.092316,0.718647 -2.217414,1.59287 -3.256304,2.37344 -2.020048,1.606273 -2.737299,2.108513 -4.663625,3.940177 -3.10261,2.950145 -5.772597,6.309471 -8.424399,9.657868 -1.225905,1.516306 -2.422361,3.029307 -3.707699,4.495681 -1.906185,2.174661 -4.000587,4.171072 -6.207371,6.037887 -0.228391,0.182126 -0.523385,0.303154 -0.68517,0.546378 -0.06434,0.09673 0.231161,-0.0236 0.346533,-0.03728 0.895093,-0.106035 1.819814,-0.57513 2.68484,-0.321818 2.336814,0.684313 4.78095,1.475407 6.636914,3.051596 2.227909,1.892069 2.201043,3.562056 2.369371,5.741029 -0.06353,-1.136949 0.0044,-2.286256 0.09856,-3.419641 0.428582,-2.501183 1.236366,-4.923812 1.928696,-7.359161 1.394383,-4.294484 2.964177,-8.52801 4.447934,-12.791945 0.505084,-1.703308 1.662459,-5.063433 1.315564,-6.730585 -0.546156,-2.624785 -0.909929,-5.702205 -2.895404,-7.503778 -4.91685,-4.4614325 -8.048959,-3.923655 -12.734079,-2.378825 -0.554286,0.182766 -1.053946,0.50174 -1.580922,0.752611 -1.352079,0.700597 -2.376813,1.207794 -3.703468,2.004204 -2.611927,1.567976 -5.013516,3.450692 -7.348172,5.399811 -0.648404,0.543022 -1.304989,1.076423 -1.945214,1.629067 -2.564789,2.213938 -4.952619,4.62388 -7.510799,6.845569 -3.049209,2.621544 -6.216594,5.105691 -9.564753,7.337377 -2.984662,1.921076 -6.045999,3.732038 -9.258814,5.249034 4.241962,-0.464444 5.131499,-0.967216 10.037107,4.081981 1.314211,1.35268 1.196265,3.589258 1.546886,5.442352 0.09271,0.490009 -0.14405,0.987274 -0.237667,1.477113 -0.0029,0.01529 -0.05035,0.02254 -0.04608,0.0076 0.105654,-0.370872 0.238255,-0.733529 0.357381,-1.100294 1.017934,-3.096138 1.958245,-6.21538 2.88232,-9.340554 1.19161,-3.859006 2.483261,-7.689958 3.5105,-11.597036 0.354015,-2.287604 1.133692,-5.669564 -0.308361,-7.706132 -1.89016,-2.669415 -4.412131,-5.15322 -7.43408,-6.404747 -3.150071,-1.304588 -6.492685,0.453146 -9.018397,2.059406 -1.821466,1.243672 -3.589197,2.560834 -5.392613,3.830324 -2.532459,1.859552 -5.07463,3.703754 -7.537161,5.656741 -4.325044,3.353919 -8.660042,6.697009 -12.8642064,10.202807 -1.2554429,1.063135 -1.7181732,1.433859 -2.9082428,2.520161 -0.1886109,0.172167 -0.3641259,0.358188 -0.549216,0.534131 -0.1125323,0.106973 -0.2396583,0.199151 -0.3435562,0.314528 -0.019296,0.02143 0.055216,-0.01667 0.082823,-0.02498 C 6.3473123,40.94563 6.6914294,40.772873 7.0355464,40.600116 -5.8877085,46.343784 2.235066,64.620028 15.158321,58.876358 Z" />
  </g>
</svg>
